<svg id="Layer_1" data-name="Layer 1" xmlns="http://www.w3.org/2000/svg" xmlns:xlink="http://www.w3.org/1999/xlink" viewBox="0 0 2048 2048"><defs><style>.cls-1{font-size:271.08px;}.cls-1,.cls-17,.cls-4{fill:#4a469d;}.cls-1,.cls-4{font-family:OptimusPrincepsSemiBold;}.cls-2{letter-spacing:-0.05em;}.cls-3{letter-spacing:0.02em;}.cls-4{font-size:370.63px;}.cls-5,.cls-9{font-size:41.98px;fill:#f9ce69;font-family:KeepCalm-Medium, Keep Calm;font-weight:500;}.cls-5{letter-spacing:0.23em;}.cls-6{letter-spacing:0.21em;}.cls-7{letter-spacing:0.03em;}.cls-8{letter-spacing:0.23em;}.cls-9{letter-spacing:0.52em;}.cls-10{letter-spacing:0.39em;}.cls-11{letter-spacing:0.46em;}.cls-12{letter-spacing:0.52em;}.cls-13{letter-spacing:0.47em;}.cls-14{fill:url(#linear-gradient);}.cls-15{fill:url(#linear-gradient-2);}.cls-16{fill:url(#linear-gradient-3);}</style><linearGradient id="linear-gradient" x1="1548.11" y1="902.57" x2="1589.65" y2="902.57" gradientUnits="userSpaceOnUse"><stop offset="0" stop-color="#697cbd"/><stop offset="0.15" stop-color="#6f7eb8"/><stop offset="0.16" stop-color="#7480b6"/><stop offset="1" stop-color="#f9ce69"/></linearGradient><linearGradient id="linear-gradient-2" x1="1567.66" y1="900.68" x2="1604.06" y2="900.68" xlink:href="#linear-gradient"/><linearGradient id="linear-gradient-3" x1="1575.98" y1="925.68" x2="1607.48" y2="925.68" xlink:href="#linear-gradient"/></defs><text class="cls-1" transform="translate(472.79 1087.06)"><tspan xml:space="preserve">   </tspan><tspan x="198.42" y="0">im</tspan><tspan class="cls-2" x="509.07" y="0">a</tspan><tspan x="680.12" y="0">n</tspan><tspan class="cls-3" x="875.3" y="0">a </tspan><tspan class="cls-3" x="1137.15" y="0">t</tspan></text><text class="cls-4" transform="translate(424.81 1088.85)">k</text><text class="cls-5" transform="translate(671.42 905.13)">BARAN<tspan class="cls-6" x="214.14" y="0">G</tspan><tspan class="cls-7" x="258.98" y="0">A</tspan><tspan class="cls-8" x="297.64" y="0">Y</tspan></text><text class="cls-9" transform="translate(278.48 1124.63)">INFORM<tspan class="cls-10" x="313.34" y="0">A</tspan><tspan x="367.04" y="0">TION MAN</tspan><tspan class="cls-11" x="780.51" y="0">A</tspan><tspan class="cls-12" x="836.93" y="0">GEMENT S</tspan><tspan class="cls-13" x="1244.1" y="0">Y</tspan><tspan x="1297.84" y="0">STEM</tspan></text><path class="cls-14" d="M1569.19,954.08s-21.69-11.56-20.85-30.64a8.67,8.67,0,0,1,.3-5s0-.07,0-.11a38.62,38.62,0,0,1,6.84-13.08l11.22-16.71,9.12-13.68s10-13.19,2.11-23.77c0,0,13.84,23.52,11.39,32.89a13.18,13.18,0,0,1-1.1,5.82q-4.54,7.57-4.61,7.54a2.73,2.73,0,0,1,.23-.45c-4.17,5.26-8.56,11-13.18,17.33a43,43,0,0,0-6.57,12.13,27,27,0,0,0-1.37,6.3C1561.76,942.87,1566.89,950.92,1569.19,954.08Z"/><path class="cls-15" d="M1568.09,944s-2.28-15,3.63-24.31a65,65,0,0,1,11.14-15.62c1-1.18,2-2.46,3-3.87a56.46,56.46,0,0,0,6.11-11.07s8.1-22.66,0-31.84a57,57,0,0,1,12.07,26.78,41.72,41.72,0,0,1-4.48,19.58s-6.41,14.43-17.21,21.52C1582.36,925.21,1569,937.87,1568.09,944Z"/><path class="cls-16" d="M1578,954.08s-4.48-7.09,0-17.35a18.86,18.86,0,0,1,3.54-4.51l5.24-5.74,7.17-7.17c1.18-1.16,2.38-2.42,3.58-3.8a59.85,59.85,0,0,0,8.83-13.68,27.71,27.71,0,0,1,1-4.55s0,.26,0,.76c.11,1.45.16,3,.14,4.64a53.35,53.35,0,0,1-1.58,12.07s-5.14,10.89-9.36,14l-9,8.44-5,5.4S1576.7,949.35,1578,954.08Z"/><rect class="cls-17" x="1550.31" y="959.36" width="47.55" height="10.57"/><rect class="cls-17" x="1556.47" y="969.93" width="34.34" height="4.4"/><rect class="cls-17" x="1560" y="974.33" width="26.42" height="2.64"/><path class="cls-17" d="M1546.24,1066.12h53.27a2.4,2.4,0,0,1,2.4,2.4v2.4a0,0,0,0,1,0,0h-58.07a0,0,0,0,1,0,0v-2.4A2.4,2.4,0,0,1,1546.24,1066.12Z"/><rect class="cls-17" x="1562.64" y="976.97" width="21.13" height="91.58"/><image width="1096" height="1071" transform="translate(278.48 920.99) scale(0.14)" xlink:href="KIMANAIT.png"/></svg>